<svg width="160" height="23" xmlns="http://www.w3.org/2000/svg" xmlns:xlink="http://www.w3.org/1999/xlink" xml:space="preserve" overflow="hidden"><defs><clipPath id="clip0"><rect x="0" y="0" width="160" height="23"/></clipPath></defs><g clip-path="url(#clip0)"><path d="M0.0868683 0 2.43132 0 2.43132 8.63162 11.6213 0 14.709 0 3.66299 10.3198 15.569 23 12.5074 23 2.43132 12.2876 2.43132 23 0.0868683 23Z" fill="#0E153D"/><path d="M19.0263 0 32.202 0 32.202 2.25156 21.3238 2.25156 21.3238 9.45572 32.1121 9.45572 32.1121 11.7073 21.3238 11.7073 21.3238 20.7445 32.1121 20.7445 32.1121 22.996 19.0263 22.996Z" fill="#0E153D"/><path d="M36.1886 23 36.1886 0 36.6881 0 51.9954 17.6308 51.9954 0 54.263 0 54.263 23 53.7465 23 38.563 5.58493 38.563 23Z" fill="#0E153D"/><path d="M83.5492 0 85.8946 0 85.8946 8.63162 95.0846 0 98.1733 0 87.1263 10.3198 99.0393 23 95.9776 23 85.8986 12.2876 85.8986 23 83.5531 23Z" fill="#0E153D"/><path d="M111.864 0 122.591 23 120.108 23 116.49 15.4322 106.582 15.4322 102.999 23 100.438 23 111.305 0ZM111.574 4.88669 107.633 13.2126 115.496 13.2126Z" fill="#0E153D"/><path d="M123.873 2.25156 123.873 0 136.475 0 136.475 2.25156 131.346 2.25156 131.346 23 129.007 23 129.007 2.25156Z" fill="#0E153D"/><path d="M149.185 0 159.911 23 157.429 23 153.81 15.4322 143.903 15.4322 140.319 23 137.757 23 148.623 0ZM148.894 4.88669 144.952 13.2126 152.816 13.2126Z" fill="#0E153D"/><path d="M69.2577 0 68.6953 0 57.8281 23 79.984 23ZM68.967 4.88669 72.8897 13.2126 65.0263 13.2126Z" fill="#0E153D"/></g></svg>